<svg fill="currentColor" height="1.6rem" width="1.6rem" version="1.1" id="Layer_1" xmlns="http://www.w3.org/2000/svg" xmlns:xlink="http://www.w3.org/1999/xlink" viewBox="0 0 512.00 512.00" xml:space="preserve" stroke="#6196a6" stroke-width="0.00512" transform="matrix(1, 0, 0, 1, 0, 0)rotate(0)">
    <g id="SVGRepo_bgCarrier" stroke-width="0"></g>
    <g id="SVGRepo_tracerCarrier" stroke-linecap="round" stroke-linejoin="round" stroke="#CCCCCC" stroke-width="6.144"></g><g id="SVGRepo_iconCarrier"> 
        <g> <g> <g> 
        <path d="M452.184,64.414l-13.12-2.624C378.866,49.751,320.505,29.724,265.538,2.251c-6.004-3.001-13.071-3.001-19.075,0 C191.478,29.733,133.136,49.754,72.938,61.79l-13.121,2.624c-9.972,1.994-17.149,10.75-17.149,20.919v78.549 c0,91.952,36.531,180.151,101.544,245.165l96.704,96.704c8.331,8.331,21.839,8.331,30.17,0l96.704-96.704 c65.014-65.014,101.544-153.213,101.544-245.165V85.333C469.333,75.164,462.156,66.409,452.184,64.414z M426.667,163.883 c0,80.636-32.036,157.983-89.048,214.995L256,460.497l-81.619-81.619c-57.012-57.012-89.048-134.359-89.048-214.995v-61.072 C144.359,90.665,201.669,71.279,256,45.097c54.318,26.174,111.642,45.564,170.667,57.714V163.883z"></path> 
        <path d="M247.478,95.932c-33.653,14.669-68.366,26.942-103.809,36.707c-9.255,2.55-15.667,10.967-15.667,20.567v10.688 c0,69.759,27.225,135.474,76.561,184.811l36.35,36.371c8.332,8.337,21.847,8.337,30.179,0l36.352-36.373 c49.34-49.317,76.559-115.029,76.559-184.809v-10.688c0-9.6-6.412-18.017-15.667-20.567 c-35.407-9.754-70.102-22.023-103.813-36.708C259.087,93.562,252.912,93.563,247.478,95.932z M341.271,169.269 c-1.349,56.443-23.927,109.212-63.999,149.264l-21.271,21.283l-21.263-21.275c-40.071-40.071-62.657-92.846-64.006-149.272 c28.975-8.609,57.453-18.817,85.271-30.568C283.854,150.46,312.322,160.666,341.271,169.269z"></path> 
        </g> </g> </g> 
    </g>
</svg>